<svg data-v-0dd9719b="" version="1.0" xmlns="http://www.w3.org/2000/svg" xmlns:xlink="http://www.w3.org/1999/xlink" width="100%" height="100%" viewBox="0 0 340.000000 250.000000" preserveAspectRatio="xMidYMid meet" color-interpolation-filters="sRGB" style="margin: auto;"> <rect data-v-0dd9719b="" x="0" y="0" width="100%" height="100%" fill="#fff" fill-opacity="1" class="background"></rect> <rect data-v-0dd9719b="" x="0" y="0" width="100%" height="100%" fill="url(#watermark)" fill-opacity="1" class="watermarklayer"></rect> <g data-v-0dd9719b="" fill="#333" class="icon-text-wrapper icon-svg-group iconsvg" transform="translate(48.839996337890625,94.68686485290527)"><g class="iconsvg-imagesvg" transform="translate(0,0)"><g><rect fill="#333" fill-opacity="0" stroke-width="2" x="0" y="0" width="60" height="60.626269362514776" class="image-rect"></rect> <svg x="0" y="0" width="60" height="60.626269362514776" filtersec="colorsb1500016604" class="image-svg-svg primary" style="overflow: visible;"><svg xmlns="http://www.w3.org/2000/svg" viewBox="-0.02413727529346943 0.0012638568878173828 130.5741424560547 131.9364471435547"><title>资源 160</title><path d="M41.11 63.71V29.47a4.44 4.44 0 0 1 2.86-4.67c2.86-1.34 5.64-2.88 8.39-4.43a4.33 4.33 0 0 1 4.69 0c2.6 1.49 5.29 2.81 7.92 4.25 1.65.9 2.27.4 2.24-1.39 0-2.83.06-5.67 0-8.5a4.16 4.16 0 0 1 2-3.95C73.83 7.54 78.4 4.2 83 .93c.59-.42 1.2-1.19 2-.84.91.41.63 1.45.63 2.25v31c0 3 .11 3.09 2.86 1.71a2.38 2.38 0 0 0 .45-.23c4.37-3.68 8.63-2.81 12.85.28a3.46 3.46 0 0 0 1.07.63c5.38 1.48 6.12 5.23 6 10.26-.35 12.16-.16 24.33-.07 36.49 0 2.26-.69 3.54-2.88 4.26-2.6.86-5.11 2-7.67 3-3.15 1.21-3.55.93-3.55-2.55V41.7c0-4.25.11-4-3.71-2.44-4.1 1.67-5.55 4.13-5.44 8.7.35 14.24.07 28.49.18 42.73 0 2.59-.88 3.76-3.37 4.26-3.68.72-7.29 1.75-10.94 2.61-3.87.91-4.23.63-4.23-3.25V34.58c0-2.4-.64-3.86-2.91-4.84-2.51-1.08-4.87-2.53-7.29-3.83-1.24-.66-1.89-.4-1.86 1.09v69.48c0 3.77 0 3.84-3.8 4.28-2.73.31-5.48.41-8.22.6-2 .14-2-1.26-2-2.66v-35z" fill="#2b3c85"></path><path d="M130.55 79c-2.82 6.17-5.39 11.84-8 17.49-.45 1-1.49 1.29-2.42 1.66-18 7.15-36.35 13.19-55.59 16-12.89 1.89-25.85 2.56-38.68-.67C14.72 110.72 9.41 99.32 14.4 89c4.16-8.63 11.23-14.54 18.87-19.89 1.47-1 3-1.92 5.09-3.21a6.15 6.15 0 0 1-2.25 2.68c-5.65 5.08-11.06 10.38-14.86 17.07a21 21 0 0 0-1 2c-3.6 8.25.23 12.87 7.5 15.34 8.89 3 18 1.78 27 .79a185.85 185.85 0 0 0 42.46-10A184.32 184.32 0 0 0 125.66 81a12.26 12.26 0 0 1 4.89-2z" fill="#f2a833"></path><path d="M11.53 84.48c-1.71 4.21-3.36 8.35-4 12.85-1.14 7.89 2 14.33 9.08 18.1s14.73 4.62 22.49 4.95c14.77.62 29.17-2.17 43.52-5.18 10.68-2.24 21.28-4.79 31.33-9.22.52-.23 1.07-.38 1.54-.54a.83.83 0 0 1 .23 1.2q-3 7-6.09 14a3.2 3.2 0 0 1-2.23 1.83A263.51 263.51 0 0 1 72.25 130a165.62 165.62 0 0 1-26.86 1.93c-9.74-.2-19.48-.89-28.63-4.82a32.17 32.17 0 0 1-12.63-9.55 18.29 18.29 0 0 1-3.56-16.23c1.6-6.92 5.99-12.08 10.96-16.85z" fill="#f2a833"></path></svg></svg> <!----></g></g> <g transform="translate(67,18.0231351852417)"><g data-gra="path-name" fill-rule="" class="tp-name iconsvg-namesvg"><g transform="scale(1)"><g><path d="M2.34-24.58L2.34 0 11.76 0C19.12 0 23.83-2.8 23.83-12.29 23.83-22.52 19.12-24.58 11.76-24.58ZM9.38-6.02L9.38-18.7 11.33-18.7C15.3-18.7 16.5-17.42 16.5-12.29 16.5-7.37 15.44-6.02 11.33-6.02ZM45.54 0L53.05 0 44.09-24.58 34.56-24.58 25.53 0 32.9 0 34.63-5.17 43.84-5.17ZM36.51-10.84L39.06-18.52 39.48-18.52 42-10.84ZM61.83 0L70.58 0 79.39-24.58 71.96-24.58 66.5-7.51 66.29-7.51 61.12-24.58 53.26-24.58ZM99.22-24.58L80.49-24.58 80.49-18.41 86.33-18.41 86.33 0 93.35 0 93.35-18.41 99.22-18.41ZM109 0L116.12 0 116.12-9.31 125.25-24.58 117.25-24.58 112.68-15.79 112.47-15.79 108.25-24.58 99.93-24.58 109-9.1ZM145.19 0L152.7 0 143.74-24.58 134.21-24.58 125.18 0 132.55 0 134.28-5.17 143.49-5.17ZM136.16-10.84L138.71-18.52 139.13-18.52 141.65-10.84ZM154.86 0L161.8 0 161.8-16.43 162.01-16.43 167.85 0 177.66 0 177.66-24.58 170.79-24.58 170.79-9.17 170.58-9.17 165.48-24.58 154.86-24.58Z" transform="translate(-2.3399999141693115, 24.579999923706055)"></path></g> <!----> <!----> <!----> <!----> <!----> <!----> <!----></g></g> <!----></g></g><defs v-gra="od"></defs></svg>